<?xml version="1.0" standalone="no"?>
<!DOCTYPE svg PUBLIC "-//W3C//DTD SVG 20010904//EN"
 "http://www.w3.org/TR/2001/REC-SVG-20010904/DTD/svg10.dtd">
<svg version="1.0" xmlns="http://www.w3.org/2000/svg"
 width="800.000000pt" height="800.000000pt" viewBox="0 0 800.000000 800.000000"
 preserveAspectRatio="xMidYMid meet">
<metadata>
Created by potrace 1.11, written by Peter Selinger 2001-2013
</metadata>
<g transform="translate(0.000000,800.000000) scale(0.100000,-0.100000)"
fill="#000000" stroke="none">
<path d="M0 4000 l0 -4000 4000 0 4000 0 0 4000 0 4000 -4000 0 -4000 0 0
-4000z m4062 3489 c185 -39 335 -183 382 -365 42 -162 -7 -335 -129 -460 -152
-155 -378 -189 -580 -87 -64 33 -165 135 -199 201 -97 192 -64 425 83 571 120
119 288 172 443 140z m-703 -784 c47 -96 47 -97 27 -110 -65 -41 -1379 -796
-1380 -793 -2 2 -13 21 -26 43 -14 22 -44 61 -68 87 -32 34 -40 48 -30 55 61
39 1423 821 1426 818 2 -1 25 -47 51 -100z m1899 -256 c345 -199 669 -386 719
-416 l93 -54 -43 -52 c-23 -28 -53 -69 -65 -89 -13 -21 -26 -38 -28 -38 -8 0
-1378 792 -1391 804 -9 8 -5 26 21 76 18 36 37 80 44 98 6 17 14 32 17 32 4 0
288 -163 633 -361z m-1168 -560 l0 -439 -120 0 -120 0 0 438 c0 241 2 441 4
443 2 2 56 3 120 1 l116 -3 0 -440z m-2569 75 c89 -26 166 -73 227 -139 91
-97 132 -198 132 -324 0 -146 -45 -257 -145 -356 -197 -196 -514 -187 -702 19
-97 106 -145 259 -124 396 28 186 162 344 339 401 72 23 200 24 273 3z m5145
2 c162 -43 296 -169 345 -326 66 -209 -24 -449 -210 -565 -186 -115 -430 -90
-593 63 -222 207 -195 584 53 755 115 79 274 108 405 73z m-4250 -907 c203
-116 373 -214 378 -219 4 -4 -5 -28 -21 -52 -16 -23 -44 -68 -62 -100 l-31
-56 -353 205 c-193 113 -362 211 -374 219 l-22 14 34 56 c19 30 42 76 52 100
10 24 21 44 24 44 4 0 173 -95 375 -211z m3494 177 c6 -18 29 -64 51 -101 33
-53 38 -69 28 -76 -65 -42 -718 -419 -725 -419 -5 1 -34 46 -66 100 -38 69
-52 102 -45 108 35 22 733 421 739 421 3 1 11 -14 18 -33z m-1825 -80 c112
-52 803 -460 837 -493 21 -20 48 -57 60 -82 l23 -46 0 -505 0 -505 -27 -55
c-15 -31 -40 -68 -55 -82 -41 -38 -808 -479 -873 -501 -64 -22 -139 -18 -198
11 -90 44 -800 459 -830 486 -18 16 -45 52 -60 80 l-27 51 -3 496 c-3 483 -2
498 18 553 13 35 37 71 63 96 40 38 699 427 832 491 79 38 166 40 240 5z
m-2715 -342 l80 -7 0 -783 0 -784 -87 0 c-49 0 -98 -3 -110 -6 l-23 -6 0 802
0 803 30 -7 c17 -3 66 -9 110 -12z m5338 -1579 c-2 -2 -52 0 -113 4 l-110 6
-3 783 -2 782 67 1 c38 0 88 4 113 7 l45 7 3 -794 c1 -437 1 -795 0 -796z
m-4018 177 c0 -4 25 -50 55 -101 31 -52 53 -96 51 -99 -3 -2 -173 -100 -378
-217 l-373 -213 -32 69 c-17 38 -42 83 -54 100 -12 17 -18 34 -13 39 13 12
727 429 737 430 4 0 7 -4 7 -8z m2965 -222 c193 -112 352 -204 353 -206 2 -1
-10 -23 -28 -49 -17 -25 -43 -70 -56 -100 -14 -31 -29 -54 -32 -52 -4 2 -174
99 -379 216 l-372 213 39 63 c21 35 48 82 60 105 20 39 22 41 43 27 12 -7 180
-105 372 -217z m-4113 -161 c159 -53 292 -195 327 -350 6 -24 11 -78 11 -120
1 -332 -330 -567 -646 -459 -218 75 -360 306 -325 530 29 186 153 337 329 397
90 30 217 32 304 2z m5151 0 c82 -27 142 -67 209 -137 90 -94 132 -201 131
-332 -4 -368 -383 -597 -713 -430 -272 137 -349 486 -162 733 56 73 149 139
235 166 87 28 217 28 300 0z m-2603 -864 l0 -442 -120 1 -120 1 0 441 0 441
120 0 120 0 0 -442z m-1305 -360 c341 -197 622 -359 624 -361 2 -2 -16 -43
-41 -91 -25 -49 -47 -94 -49 -102 -3 -9 -232 118 -726 404 l-722 417 45 54
c24 30 53 72 64 94 l20 40 83 -49 c45 -27 361 -209 702 -406z m3173 406 c12
-21 42 -61 67 -89 l44 -49 -713 -412 c-392 -226 -717 -411 -722 -411 -16 1
-103 194 -91 202 88 54 1375 796 1383 797 6 1 20 -17 32 -38z m-1896 -685 c96
-21 171 -60 242 -127 278 -259 165 -715 -203 -823 -75 -22 -204 -21 -280 3
-251 78 -397 356 -320 607 61 200 253 347 459 353 19 0 65 -6 102 -13z"/>
<path d="M3569 4732 c-207 -119 -384 -223 -393 -231 -14 -12 -16 -59 -16 -470
0 -351 3 -461 13 -473 14 -17 757 -447 787 -455 13 -4 142 66 406 218 213 123
393 229 400 237 12 11 14 96 14 467 0 417 -1 454 -17 472 -28 31 -768 453
-795 453 -12 0 -192 -98 -399 -218z"/>
</g>
</svg>
